<?xml version="1.0" encoding="UTF-8" standalone="no"?><!DOCTYPE svg PUBLIC "-//W3C//DTD SVG 1.1//EN" "http://www.w3.org/Graphics/SVG/1.1/DTD/svg11.dtd"><svg width="100%" height="100%" viewBox="0 0 48 47" version="1.1" xmlns="http://www.w3.org/2000/svg" xmlns:xlink="http://www.w3.org/1999/xlink" xml:space="preserve" xmlns:serif="http://www.serif.com/" style="fill-rule:evenodd;clip-rule:evenodd;stroke-linejoin:round;stroke-miterlimit:1.41421;"><g id="Layer_1_43_"><path d="M44.863,10.771l-9.998,0c1.373,1.227 2.547,2.665 3.467,4.272l6.531,0c1.18,0 2.137,-0.956 2.137,-2.136c0,-1.179 -0.957,-2.136 -2.137,-2.136Z" style="fill:#ffcf06;fill-rule:nonzero;"/><path d="M44.863,16.158l-5.954,0c0.642,1.34 1.116,2.77 1.391,4.272l4.563,0c1.18,0 2.137,-0.956 2.137,-2.136c0,-1.18 -0.957,-2.136 -2.137,-2.136Z" style="fill:#ffcf06;fill-rule:nonzero;"/><path d="M44.863,5.386l-15.815,0c-0.921,0 -1.696,0.584 -1.998,1.398c2.365,0.502 4.541,1.504 6.437,2.874l11.377,0c1.181,0 2.138,-0.956 2.138,-2.136c0,-1.18 -0.959,-2.136 -2.139,-2.136Z" style="fill:#ffcf06;fill-rule:nonzero;"/><path d="M29.048,4.272l15.815,0c1.18,0 2.137,-0.956 2.137,-2.136c0,-1.179 -0.957,-2.136 -2.137,-2.136l-15.815,0c-1.181,0 -2.137,0.957 -2.137,2.137c0,1.18 0.956,2.135 2.137,2.135Z" style="fill:#ffcf06;fill-rule:nonzero;"/><path d="M44.863,21.542l-4.393,0c0.073,0.644 0.12,1.295 0.12,1.958c0,0.786 -0.071,1.557 -0.175,2.314l4.447,0c1.18,0 2.137,-0.957 2.137,-2.137c0,-1.18 -0.956,-2.135 -2.136,-2.135Z" style="fill:#ffcf06;fill-rule:nonzero;"/><path d="M44.863,26.928l-4.619,0c-0.309,1.51 -0.829,2.938 -1.508,4.272l6.127,0c1.18,0 2.137,-0.956 2.137,-2.136c0,-1.18 -0.957,-2.136 -2.137,-2.136Z" style="fill:#ffcf06;fill-rule:nonzero;"/><path d="M44.863,32.313l-6.748,0c-0.979,1.617 -2.204,3.063 -3.645,4.272l10.393,0c1.18,0 2.137,-0.956 2.137,-2.136c0,-1.18 -0.957,-2.136 -2.137,-2.136Z" style="fill:#ffcf06;fill-rule:nonzero;"/><path d="M2.137,25.458l4.393,0c-0.074,-0.644 -0.121,-1.295 -0.121,-1.958c0,-0.786 0.072,-1.556 0.175,-2.314l-4.447,0c-1.18,0.001 -2.137,0.957 -2.137,2.137c0,1.179 0.957,2.135 2.137,2.135Z" style="fill:#ffcf06;fill-rule:nonzero;"/><path d="M2.137,30.844l5.954,0c-0.641,-1.34 -1.116,-2.77 -1.391,-4.271l-4.563,0c-1.18,0 -2.137,0.955 -2.137,2.135c0,1.18 0.957,2.136 2.137,2.136Z" style="fill:#ffcf06;fill-rule:nonzero;"/><path d="M2.137,20.073l4.619,0c0.308,-1.509 0.829,-2.938 1.507,-4.272l-6.126,0c-1.18,-0.001 -2.137,0.955 -2.137,2.136c0,1.181 0.957,2.136 2.137,2.136Z" style="fill:#ffcf06;fill-rule:nonzero;"/><path d="M2.137,14.688l6.748,0c0.979,-1.616 2.204,-3.063 3.644,-4.272l-10.392,0c-1.18,0 -2.137,0.956 -2.137,2.135c0,1.18 0.957,2.137 2.137,2.137Z" style="fill:#ffcf06;fill-rule:nonzero;"/><path d="M2.137,36.229l9.998,0c-1.373,-1.227 -2.547,-2.664 -3.467,-4.271l-6.531,0c-1.18,0 -2.137,0.956 -2.137,2.135c0,1.181 0.957,2.136 2.137,2.136Z" style="fill:#ffcf06;fill-rule:nonzero;"/><path d="M2.137,41.615l15.815,0c0.921,0 1.697,-0.584 1.998,-1.398c-2.365,-0.502 -4.541,-1.504 -6.436,-2.874l-11.377,0c-1.18,-0.001 -2.137,0.955 -2.137,2.136c0,1.18 0.957,2.136 2.137,2.136Z" style="fill:#ffcf06;fill-rule:nonzero;"/><path d="M17.952,42.729l-15.815,0c-1.18,0 -2.137,0.955 -2.137,2.136c0,1.179 0.957,2.135 2.137,2.135l15.815,0c1.181,0 2.137,-0.957 2.137,-2.137c0,-1.18 -0.956,-2.134 -2.137,-2.134Z" style="fill:#ffcf06;fill-rule:nonzero;"/><path d="M23.5,8.546c-8.246,0 -14.954,6.708 -14.954,14.954c0,8.246 6.708,14.955 14.954,14.955c8.246,0 14.954,-6.708 14.954,-14.955c0,-8.247 -6.708,-14.954 -14.954,-14.954Zm0,25.636c-5.89,0 -10.682,-4.791 -10.682,-10.682c0,-5.89 4.792,-10.682 10.682,-10.682c5.891,0 10.682,4.792 10.682,10.682c0,5.891 -4.791,10.682 -10.682,10.682Z" style="fill:#ffcf06;fill-rule:nonzero;"/><path d="M24.123,22.057l0,-3.692c2.15,0.04 2.134,2.118 3.396,2.118c0.66,0 1.227,-0.445 1.227,-1.203c0,-1.904 -3.109,-2.855 -4.623,-2.895l0,-1.035c0,-0.331 -0.254,-0.661 -0.586,-0.661c-0.328,0 -0.579,0.33 -0.579,0.661l0,1.035c-2.428,0.075 -4.624,1.438 -4.624,4.078c0,2.157 1.744,3.42 4.624,3.943l0,4.061c-3.229,-0.136 -1.537,-2.817 -3.713,-2.817c-0.734,0 -1.203,0.449 -1.203,1.224c0,1.536 1.633,3.498 4.916,3.578l0,1.202c0,0.33 0.251,0.66 0.579,0.66c0.332,0 0.586,-0.33 0.586,-0.66l0,-1.202c2.893,-0.175 4.835,-1.498 4.835,-4.101c0,-2.993 -2.27,-3.749 -4.835,-4.294Zm-1.165,-0.213c-1.457,-0.293 -2.18,-0.854 -2.18,-1.828c0,-0.834 0.855,-1.612 2.18,-1.652l0,3.48Zm1.165,6.622l0,-3.846c1.046,0.231 2.391,0.62 2.391,1.94c0,1.282 -1.227,1.829 -2.391,1.906Z" style="fill:#ffcf06;fill-rule:nonzero;"/></g></svg>