<?xml version="1.0" encoding="UTF-8" standalone="no"?><!DOCTYPE svg PUBLIC "-//W3C//DTD SVG 1.1//EN" "http://www.w3.org/Graphics/SVG/1.1/DTD/svg11.dtd"><svg width="100%" height="100%" viewBox="0 0 228 92" version="1.1" xmlns="http://www.w3.org/2000/svg" xmlns:xlink="http://www.w3.org/1999/xlink" xml:space="preserve" xmlns:serif="http://www.serif.com/" style="fill-rule:evenodd;clip-rule:evenodd;stroke-linejoin:round;stroke-miterlimit:1.41421;"><path d="M91.055,45.528c0,25.144 -20.383,45.527 -45.527,45.527c-25.145,0 -45.528,-20.383 -45.528,-45.527c0,-25.145 20.383,-45.528 45.528,-45.528c25.144,0 45.527,20.383 45.527,45.528Z" style="fill:url(#_Linear1);fill-rule:nonzero;"/><path d="M69.952,49.205l0,-7.355c3.579,-1.135 6.18,-4.487 6.18,-8.437c0,-4.878 -3.969,-8.848 -8.848,-8.848c-2.53,0 -4.814,1.069 -6.428,2.777l-6.567,-3.581c0.056,-0.401 0.087,-0.81 0.087,-1.226c0,-4.879 -3.97,-8.848 -8.848,-8.848c-4.879,0 -8.849,3.969 -8.849,8.848c0,0.414 0.031,0.821 0.086,1.22l-6.584,3.568c-1.613,-1.697 -3.889,-2.759 -6.41,-2.759c-4.879,0 -8.848,3.97 -8.848,8.849c0,3.858 2.483,7.145 5.933,8.353l0,7.523c-3.45,1.208 -5.933,4.495 -5.933,8.353c0,4.879 3.969,8.848 8.848,8.848c2.518,0 4.791,-1.058 6.403,-2.751l6.585,3.607c-0.051,0.384 -0.08,0.776 -0.08,1.174c0,4.879 3.97,8.848 8.849,8.848c4.878,0 8.848,-3.969 8.848,-8.848c0,-0.422 -0.032,-0.838 -0.089,-1.245l6.511,-3.624c1.616,1.745 3.925,2.839 6.486,2.839c4.879,0 8.848,-3.969 8.848,-8.848c0,-3.95 -2.601,-7.302 -6.18,-8.437Zm-8.388,1.694l-10.348,-5.495l10.171,-5.401c0.923,0.828 2.02,1.464 3.229,1.847l0,7.355c-1.133,0.359 -2.167,0.942 -3.052,1.694Zm-32.073,0c-0.949,-0.807 -2.07,-1.416 -3.299,-1.766l0,-7.21c1.306,-0.373 2.491,-1.037 3.476,-1.92l10.171,5.401l-10.348,5.495Zm37.793,-20.999c1.937,0 3.513,1.576 3.513,3.513c0,1.937 -1.576,3.514 -3.513,3.514c-1.937,0 -3.513,-1.577 -3.513,-3.514c0,-1.937 1.576,-3.513 3.513,-3.513Zm-8.757,2.248c-0.059,0.414 -0.091,0.836 -0.091,1.265c0,0.686 0.08,1.353 0.229,1.995l-10.47,5.559l0,-9.995c1.463,-0.464 2.761,-1.299 3.786,-2.393l6.546,3.569Zm-12.999,-13.126c1.937,0 3.513,1.576 3.513,3.513c0,1.937 -1.576,3.513 -3.513,3.513c-1.938,0 -3.514,-1.576 -3.514,-3.513c0,-1.937 1.576,-3.513 3.514,-3.513Zm-6.459,9.553c1.026,1.096 2.326,1.933 3.791,2.397l0,9.995l-10.47,-5.559c0.149,-0.642 0.23,-1.309 0.23,-1.995c0,-0.439 -0.034,-0.87 -0.096,-1.292l6.545,-3.546Zm-15.298,1.325c1.938,0 3.514,1.576 3.514,3.513c0,1.937 -1.576,3.514 -3.514,3.514c-1.937,0 -3.513,-1.577 -3.513,-3.514c0,-1.937 1.576,-3.513 3.513,-3.513Zm0,31.255c-1.937,0 -3.513,-1.576 -3.513,-3.513c0,-1.937 1.576,-3.513 3.513,-3.513c1.938,0 3.514,1.576 3.514,3.513c0,1.937 -1.576,3.513 -3.514,3.513Zm8.753,-2.212c0.062,-0.425 0.096,-0.859 0.096,-1.301c0,-0.765 -0.098,-1.506 -0.281,-2.215l10.521,-5.586l0,10.243c-1.479,0.468 -2.79,1.315 -3.82,2.427l-6.516,-3.568Zm13.004,13.09c-1.938,0 -3.514,-1.576 -3.514,-3.513c0,-1.937 1.576,-3.513 3.514,-3.513c1.937,0 3.513,1.576 3.513,3.513c0,1.937 -1.576,3.513 -3.513,3.513Zm6.439,-9.573c-1.024,-1.086 -2.316,-1.915 -3.772,-2.376l0,-10.243l10.521,5.586c-0.183,0.709 -0.28,1.45 -0.28,2.215c0,0.398 0.028,0.79 0.08,1.174l-6.549,3.644Zm15.317,-1.305c-1.937,0 -3.513,-1.576 -3.513,-3.513c0,-1.937 1.576,-3.513 3.513,-3.513c1.937,0 3.513,1.576 3.513,3.513c0,1.937 -1.576,3.513 -3.513,3.513Z" style="fill:#fff;fill-rule:nonzero;"/><g><path d="M104.72,49.812c-0.119,0 -0.179,-0.075 -0.179,-0.225l0,-25.622l-5.844,0c-0.15,0 -0.225,-0.075 -0.225,-0.225l0.045,-5.034c0,-0.12 0.06,-0.18 0.18,-0.18l17.081,0c0.15,0 0.225,0.06 0.225,0.18l0,5.034c0,0.15 -0.06,0.225 -0.18,0.225l-5.888,0l0.045,25.622c0,0.15 -0.06,0.225 -0.18,0.225l-5.08,0Z" style="fill:url(#_Linear2);fill-rule:nonzero;"/><path d="M118.385,49.812c-0.12,0 -0.179,-0.075 -0.179,-0.225l0.089,-30.881c0,-0.12 0.06,-0.18 0.18,-0.18l9.08,0c1.618,0 3.109,0.397 4.473,1.191c1.363,0.794 2.45,1.858 3.259,3.192c0.809,1.333 1.213,2.839 1.213,4.517c0,1.109 -0.165,2.105 -0.494,2.989c-0.33,0.884 -0.719,1.634 -1.169,2.248c-0.449,0.614 -0.854,1.071 -1.214,1.371c1.619,1.798 2.428,3.911 2.428,6.338l0.045,9.215c0,0.15 -0.075,0.225 -0.225,0.225l-5.079,0c-0.12,0 -0.18,-0.045 -0.18,-0.135l0,-9.305c0,-1.079 -0.382,-2.015 -1.146,-2.809c-0.765,-0.795 -1.701,-1.192 -2.81,-1.192l-2.967,0l-0.044,13.216c0,0.15 -0.06,0.225 -0.18,0.225l-5.08,0Zm5.304,-18.835l3.866,0c0.929,0 1.753,-0.344 2.472,-1.034c0.72,-0.689 1.079,-1.528 1.079,-2.517c0,-0.959 -0.352,-1.783 -1.056,-2.472c-0.704,-0.689 -1.536,-1.034 -2.495,-1.034l-3.866,0l0,7.057Z" style="fill:url(#_Linear3);fill-rule:nonzero;"/><path d="M138.343,49.587l5.574,-30.881c0.03,-0.12 0.105,-0.18 0.225,-0.18l6.518,0c0.119,0 0.194,0.06 0.224,0.18l5.349,30.881c0.03,0.15 -0.03,0.225 -0.179,0.225l-4.99,0c-0.12,0 -0.195,-0.075 -0.225,-0.225l-0.494,-3.282l-6.113,0l-0.495,3.282c-0.03,0.15 -0.105,0.225 -0.224,0.225l-4.99,0c-0.12,0 -0.18,-0.075 -0.18,-0.225Zm6.788,-8.091l4.315,0l-1.843,-12.631l-0.27,-1.663l-0.18,1.663l-2.022,12.631Z" style="fill:url(#_Linear4);fill-rule:nonzero;"/><path d="M159.29,49.812c-0.15,0 -0.225,-0.075 -0.225,-0.225l0.09,-30.881c0,-0.12 0.06,-0.18 0.18,-0.18l8.406,-0.045c1.648,-0.03 3.154,0.36 4.517,1.169c1.364,0.809 2.45,1.895 3.259,3.259c0.809,1.363 1.214,2.869 1.214,4.517l0,12.901c0,1.738 -0.42,3.319 -1.259,4.742c-0.839,1.424 -1.963,2.555 -3.371,3.394c-1.409,0.839 -2.997,1.274 -4.765,1.304l-8.046,0.045Zm5.259,-5.529l2.787,0c1.109,0 2.045,-0.39 2.81,-1.169c0.764,-0.779 1.146,-1.708 1.146,-2.787l0,-12.946c0,-0.959 -0.352,-1.79 -1.057,-2.494c-0.704,-0.705 -1.535,-1.042 -2.494,-1.012l-3.147,0.045l-0.045,20.363Z" style="fill:url(#_Linear5);fill-rule:nonzero;"/><path d="M180.507,49.812c-0.15,0 -0.225,-0.075 -0.225,-0.225l0.045,-30.881c0,-0.12 0.06,-0.18 0.18,-0.18l5.034,0c0.12,0 0.18,0.06 0.18,0.18l0.045,30.881c0,0.15 -0.06,0.225 -0.18,0.225l-5.079,0Z" style="fill:url(#_Linear6);fill-rule:nonzero;"/><path d="M190.126,49.812c-0.24,0 -0.36,-0.105 -0.36,-0.315l-0.045,-30.611c0,-0.24 0.12,-0.36 0.36,-0.36l4.046,0l7.596,17.711l-0.225,-17.351c0,-0.24 0.135,-0.36 0.405,-0.36l4.45,0c0.18,0 0.27,0.12 0.27,0.36l0.045,30.656c0,0.18 -0.075,0.27 -0.225,0.27l-3.956,0l-7.776,-16.542l0.315,16.182c0,0.24 -0.135,0.36 -0.405,0.36l-4.495,0Z" style="fill:url(#_Linear7);fill-rule:nonzero;"/><path d="M218.804,50.261c-1.618,0 -3.086,-0.405 -4.405,-1.214c-1.318,-0.809 -2.375,-1.895 -3.169,-3.259c-0.794,-1.363 -1.191,-2.884 -1.191,-4.562l0,-14.249c0,-1.618 0.397,-3.109 1.191,-4.473c0.794,-1.363 1.858,-2.45 3.192,-3.259c1.333,-0.809 2.794,-1.213 4.382,-1.213c1.648,0 3.139,0.397 4.473,1.191c1.333,0.794 2.39,1.865 3.169,3.214c0.779,1.348 1.168,2.862 1.168,4.54l0,2.067c0,0.12 -0.074,0.18 -0.224,0.18l-5.035,0c-0.12,0 -0.18,-0.06 -0.18,-0.18l0,-1.708c0,-1.138 -0.322,-2.082 -0.966,-2.831c-0.644,-0.75 -1.446,-1.124 -2.405,-1.124c-0.869,0 -1.64,0.359 -2.315,1.079c-0.674,0.719 -1.011,1.558 -1.011,2.517l0,14.249c0,0.989 0.33,1.835 0.989,2.54c0.659,0.704 1.438,1.056 2.337,1.056c0.959,0 1.761,-0.345 2.405,-1.034c0.644,-0.689 0.966,-1.543 0.966,-2.562l0,-2.203l-3.146,0c-0.15,0 -0.225,-0.074 -0.225,-0.224l0,-5.035c0,-0.15 0.075,-0.224 0.225,-0.224l8.406,0c0.12,0 0.179,0.074 0.179,0.224l0,7.462c0,1.678 -0.397,3.199 -1.191,4.562c-0.794,1.364 -1.85,2.45 -3.169,3.259c-1.318,0.809 -2.802,1.214 -4.45,1.214Z" style="fill:url(#_Linear8);fill-rule:nonzero;"/></g><g><path d="M122.243,72.783c-0.08,0 -0.12,-0.04 -0.12,-0.12l0.048,-16.488c0,-0.064 0.032,-0.096 0.096,-0.096l4.608,0c1.472,0 2.636,0.448 3.492,1.344c0.856,0.896 1.284,2.112 1.284,3.648c0,1.136 -0.224,2.12 -0.672,2.952c-0.448,0.832 -1.032,1.472 -1.752,1.92c-0.72,0.448 -1.504,0.672 -2.352,0.672l-1.824,0l0,6.048c0,0.08 -0.04,0.12 -0.12,0.12l-2.688,0Zm2.808,-9.072l1.824,0c0.512,0 0.956,-0.244 1.332,-0.732c0.376,-0.488 0.564,-1.124 0.564,-1.908c0,-0.624 -0.168,-1.136 -0.504,-1.536c-0.336,-0.4 -0.8,-0.6 -1.392,-0.6l-1.824,0.024l0,4.752Z" style="fill:url(#_Linear9);fill-rule:nonzero;"/><path d="M133.187,72.783c-0.064,0 -0.096,-0.04 -0.096,-0.12l0.024,-16.464c0,-0.08 0.04,-0.12 0.12,-0.12l2.664,0c0.08,0 0.12,0.04 0.12,0.12l-0.024,13.632l4.944,0c0.08,0 0.12,0.04 0.12,0.12l0,2.712c0,0.08 -0.04,0.12 -0.12,0.12l-7.752,0Z" style="fill:url(#_Linear10);fill-rule:nonzero;"/><path d="M141.803,72.663l2.976,-16.488c0.016,-0.064 0.056,-0.096 0.12,-0.096l3.48,0c0.064,0 0.104,0.032 0.12,0.096l2.856,16.488c0.016,0.08 -0.016,0.12 -0.096,0.12l-2.664,0c-0.064,0 -0.104,-0.04 -0.12,-0.12l-0.264,-1.752l-3.264,0l-0.264,1.752c-0.016,0.08 -0.056,0.12 -0.12,0.12l-2.664,0c-0.064,0 -0.096,-0.04 -0.096,-0.12Zm3.624,-4.32l2.304,0l-0.984,-6.744l-0.144,-0.888l-0.096,0.888l-1.08,6.744Z" style="fill:url(#_Linear11);fill-rule:nonzero;"/><path d="M154.115,72.783c-0.064,0 -0.096,-0.04 -0.096,-0.12l0,-13.68l-3.12,0c-0.08,0 -0.12,-0.04 -0.12,-0.12l0.024,-2.688c0,-0.064 0.032,-0.096 0.096,-0.096l9.12,0c0.08,0 0.12,0.032 0.12,0.096l0,2.688c0,0.08 -0.032,0.12 -0.096,0.12l-3.144,0l0.024,13.68c0,0.08 -0.032,0.12 -0.096,0.12l-2.712,0Z" style="fill:url(#_Linear12);fill-rule:nonzero;"/><path d="M161.435,72.783c-0.08,0 -0.12,-0.04 -0.12,-0.12l0.048,-16.488c0,-0.064 0.032,-0.096 0.096,-0.096l7.68,0c0.08,0 0.12,0.032 0.12,0.096l0,2.712c0,0.064 -0.032,0.096 -0.096,0.096l-4.92,0l0,3.72l4.92,0c0.064,0 0.096,0.04 0.096,0.12l0.024,2.712c0,0.064 -0.04,0.096 -0.12,0.096l-4.92,0l0,7.032c0,0.08 -0.04,0.12 -0.12,0.12l-2.688,0Z" style="fill:url(#_Linear13);fill-rule:nonzero;"/><path d="M174.995,73.023c-0.864,0 -1.652,-0.22 -2.364,-0.66c-0.712,-0.44 -1.284,-1.024 -1.716,-1.752c-0.432,-0.728 -0.648,-1.532 -0.648,-2.412l0.024,-7.608c0,-0.88 0.212,-1.68 0.636,-2.4c0.424,-0.72 0.996,-1.296 1.716,-1.728c0.72,-0.432 1.504,-0.648 2.352,-0.648c0.864,0 1.648,0.216 2.352,0.648c0.704,0.432 1.268,1.008 1.692,1.728c0.424,0.72 0.636,1.52 0.636,2.4l0.024,7.608c0,0.88 -0.212,1.684 -0.636,2.412c-0.424,0.728 -0.992,1.312 -1.704,1.752c-0.712,0.44 -1.5,0.66 -2.364,0.66Zm0,-2.904c0.48,0 0.9,-0.196 1.26,-0.588c0.36,-0.392 0.54,-0.836 0.54,-1.332l-0.024,-7.608c0,-0.528 -0.168,-0.976 -0.504,-1.344c-0.336,-0.368 -0.76,-0.552 -1.272,-0.552c-0.496,0 -0.92,0.18 -1.272,0.54c-0.352,0.36 -0.528,0.812 -0.528,1.356l0,7.608c0,0.528 0.176,0.98 0.528,1.356c0.352,0.376 0.776,0.564 1.272,0.564Z" style="fill:url(#_Linear14);fill-rule:nonzero;"/><path d="M181.619,72.783c-0.064,0 -0.096,-0.04 -0.096,-0.12l0.048,-16.488c0,-0.064 0.032,-0.096 0.096,-0.096l4.848,0c0.864,0 1.66,0.212 2.388,0.636c0.728,0.424 1.308,0.992 1.74,1.704c0.432,0.712 0.648,1.516 0.648,2.412c0,0.592 -0.088,1.124 -0.264,1.596c-0.176,0.472 -0.384,0.872 -0.624,1.2c-0.24,0.328 -0.456,0.572 -0.648,0.732c0.864,0.96 1.296,2.088 1.296,3.384l0.024,4.92c0,0.08 -0.04,0.12 -0.12,0.12l-2.712,0c-0.064,0 -0.096,-0.024 -0.096,-0.072l0,-4.968c0,-0.576 -0.204,-1.076 -0.612,-1.5c-0.408,-0.424 -0.908,-0.636 -1.5,-0.636l-1.584,0l-0.024,7.056c0,0.08 -0.032,0.12 -0.096,0.12l-2.712,0Zm2.832,-10.056l2.064,0c0.496,0 0.936,-0.184 1.32,-0.552c0.384,-0.368 0.576,-0.816 0.576,-1.344c0,-0.512 -0.188,-0.952 -0.564,-1.32c-0.376,-0.368 -0.82,-0.552 -1.332,-0.552l-2.064,0l0,3.768Z" style="fill:url(#_Linear15);fill-rule:nonzero;"/><path d="M193.187,72.783c-0.064,0 -0.096,-0.04 -0.096,-0.12l0.048,-16.488c0,-0.064 0.032,-0.096 0.096,-0.096l2.928,0c0.064,0 0.12,0.032 0.168,0.096l2.184,3.168l2.184,-3.168c0.048,-0.064 0.104,-0.096 0.168,-0.096l2.952,0c0.064,0 0.096,0.032 0.096,0.096l0.048,16.488c0,0.08 -0.032,0.12 -0.096,0.12l-2.712,0c-0.064,0 -0.096,-0.04 -0.096,-0.12l-0.024,-12.24l-2.52,3.648l-2.496,-3.648l-0.024,12.24c0,0.08 -0.032,0.12 -0.096,0.12l-2.712,0Z" style="fill:url(#_Linear16);fill-rule:nonzero;"/></g><defs><linearGradient id="_Linear1" x1="0" y1="0" x2="1" y2="0" gradientUnits="userSpaceOnUse" gradientTransform="matrix(91.0551,0,0,91.0551,0,45.5276)"><stop offset="0" style="stop-color:#00f38d;stop-opacity:1"/><stop offset="1" style="stop-color:#009eff;stop-opacity:1"/></linearGradient><linearGradient id="_Linear2" x1="0" y1="0" x2="1" y2="0" gradientUnits="userSpaceOnUse" gradientTransform="matrix(129.142,0,0,32.2293,98.4724,34.1463)"><stop offset="0" style="stop-color:#00eb98;stop-opacity:1"/><stop offset="1" style="stop-color:#00a3f8;stop-opacity:1"/></linearGradient><linearGradient id="_Linear3" x1="0" y1="0" x2="1" y2="0" gradientUnits="userSpaceOnUse" gradientTransform="matrix(129.142,0,0,32.2293,98.4724,34.1463)"><stop offset="0" style="stop-color:#00eb98;stop-opacity:1"/><stop offset="1" style="stop-color:#00a3f8;stop-opacity:1"/></linearGradient><linearGradient id="_Linear4" x1="0" y1="0" x2="1" y2="0" gradientUnits="userSpaceOnUse" gradientTransform="matrix(129.142,0,0,32.2293,98.4724,34.1463)"><stop offset="0" style="stop-color:#00eb98;stop-opacity:1"/><stop offset="1" style="stop-color:#00a3f8;stop-opacity:1"/></linearGradient><linearGradient id="_Linear5" x1="0" y1="0" x2="1" y2="0" gradientUnits="userSpaceOnUse" gradientTransform="matrix(129.142,0,0,32.2293,98.4724,34.1463)"><stop offset="0" style="stop-color:#00eb98;stop-opacity:1"/><stop offset="1" style="stop-color:#00a3f8;stop-opacity:1"/></linearGradient><linearGradient id="_Linear6" x1="0" y1="0" x2="1" y2="0" gradientUnits="userSpaceOnUse" gradientTransform="matrix(129.142,0,0,32.2293,98.4724,34.1463)"><stop offset="0" style="stop-color:#00eb98;stop-opacity:1"/><stop offset="1" style="stop-color:#00a3f8;stop-opacity:1"/></linearGradient><linearGradient id="_Linear7" x1="0" y1="0" x2="1" y2="0" gradientUnits="userSpaceOnUse" gradientTransform="matrix(129.142,0,0,32.2293,98.4724,34.1463)"><stop offset="0" style="stop-color:#00eb98;stop-opacity:1"/><stop offset="1" style="stop-color:#00a3f8;stop-opacity:1"/></linearGradient><linearGradient id="_Linear8" x1="0" y1="0" x2="1" y2="0" gradientUnits="userSpaceOnUse" gradientTransform="matrix(129.142,0,0,32.2293,98.4724,34.1463)"><stop offset="0" style="stop-color:#00eb98;stop-opacity:1"/><stop offset="1" style="stop-color:#00a3f8;stop-opacity:1"/></linearGradient><linearGradient id="_Linear9" x1="0" y1="0" x2="1" y2="0" gradientUnits="userSpaceOnUse" gradientTransform="matrix(129.142,0,0,32.2293,121.208,57.1183)"><stop offset="0" style="stop-color:#00eb98;stop-opacity:1"/><stop offset="1" style="stop-color:#00a3f8;stop-opacity:1"/></linearGradient><linearGradient id="_Linear10" x1="0" y1="0" x2="1" y2="0" gradientUnits="userSpaceOnUse" gradientTransform="matrix(129.142,0,0,32.2293,121.208,57.1183)"><stop offset="0" style="stop-color:#00eb98;stop-opacity:1"/><stop offset="1" style="stop-color:#00a3f8;stop-opacity:1"/></linearGradient><linearGradient id="_Linear11" x1="0" y1="0" x2="1" y2="0" gradientUnits="userSpaceOnUse" gradientTransform="matrix(129.142,0,0,32.2293,121.208,57.1183)"><stop offset="0" style="stop-color:#00eb98;stop-opacity:1"/><stop offset="1" style="stop-color:#00a3f8;stop-opacity:1"/></linearGradient><linearGradient id="_Linear12" x1="0" y1="0" x2="1" y2="0" gradientUnits="userSpaceOnUse" gradientTransform="matrix(129.142,0,0,32.2293,121.208,57.1183)"><stop offset="0" style="stop-color:#00eb98;stop-opacity:1"/><stop offset="1" style="stop-color:#00a3f8;stop-opacity:1"/></linearGradient><linearGradient id="_Linear13" x1="0" y1="0" x2="1" y2="0" gradientUnits="userSpaceOnUse" gradientTransform="matrix(129.142,0,0,32.2293,121.208,57.1183)"><stop offset="0" style="stop-color:#00eb98;stop-opacity:1"/><stop offset="1" style="stop-color:#00a3f8;stop-opacity:1"/></linearGradient><linearGradient id="_Linear14" x1="0" y1="0" x2="1" y2="0" gradientUnits="userSpaceOnUse" gradientTransform="matrix(129.142,0,0,32.2293,121.208,57.1183)"><stop offset="0" style="stop-color:#00eb98;stop-opacity:1"/><stop offset="1" style="stop-color:#00a3f8;stop-opacity:1"/></linearGradient><linearGradient id="_Linear15" x1="0" y1="0" x2="1" y2="0" gradientUnits="userSpaceOnUse" gradientTransform="matrix(129.142,0,0,32.2293,121.208,57.1183)"><stop offset="0" style="stop-color:#00eb98;stop-opacity:1"/><stop offset="1" style="stop-color:#00a3f8;stop-opacity:1"/></linearGradient><linearGradient id="_Linear16" x1="0" y1="0" x2="1" y2="0" gradientUnits="userSpaceOnUse" gradientTransform="matrix(129.142,0,0,32.2293,121.208,57.1183)"><stop offset="0" style="stop-color:#00eb98;stop-opacity:1"/><stop offset="1" style="stop-color:#00a3f8;stop-opacity:1"/></linearGradient></defs></svg>