<?xml version="1.0" encoding="UTF-8" standalone="no"?><!DOCTYPE svg PUBLIC "-//W3C//DTD SVG 1.1//EN" "http://www.w3.org/Graphics/SVG/1.1/DTD/svg11.dtd"><svg width="100%" height="100%" viewBox="0 0 55 55" version="1.1" xmlns="http://www.w3.org/2000/svg" xmlns:xlink="http://www.w3.org/1999/xlink" xml:space="preserve" xmlns:serif="http://www.serif.com/" style="fill-rule:evenodd;clip-rule:evenodd;stroke-linejoin:round;stroke-miterlimit:1.41421;"><g><path d="M53.924,24.382c0.101,-0.244 0.101,-0.519 0,-0.764c-0.051,-0.123 -0.125,-0.234 -0.217,-0.327l-11.999,-11.998c-0.391,-0.391 -1.023,-0.391 -1.414,0c-0.391,0.391 -0.391,1.023 0,1.414l10.293,10.293l-21.586,0c-0.553,0 -1,0.447 -1,1c0,0.553 0.447,1 1,1l21.586,0l-10.293,10.293c-0.391,0.391 -0.391,1.023 0,1.414c0.195,0.195 0.451,0.293 0.707,0.293c0.256,0 0.512,-0.098 0.707,-0.293l11.999,-11.999c0.092,-0.092 0.166,-0.203 0.217,-0.326Z" style="fill:#fff;fill-rule:nonzero;stroke:#fff;stroke-width:1px;"/><path d="M36.001,29c-0.553,0 -1,0.447 -1,1l0,16l-10,0l0,-38c0,-0.436 -0.282,-0.821 -0.697,-0.953l-15.862,-5.047l26.559,0l0,16c0,0.553 0.447,1 1,1c0.553,0 1,-0.447 1,-1l0,-17c0,-0.553 -0.447,-1 -1,-1l-34,0c-0.032,0 -0.06,0.015 -0.091,0.018c-0.056,0.005 -0.105,0.018 -0.158,0.032c-0.094,0.025 -0.178,0.059 -0.259,0.108c-0.026,0.016 -0.057,0.016 -0.082,0.034c-0.031,0.023 -0.055,0.052 -0.083,0.077c-0.017,0.016 -0.035,0.03 -0.051,0.047c-0.076,0.082 -0.138,0.173 -0.184,0.273c-0.009,0.02 -0.014,0.04 -0.022,0.06c-0.042,0.112 -0.07,0.229 -0.07,0.351l0,46c0,0.125 0.029,0.243 0.072,0.355c0.014,0.037 0.035,0.068 0.053,0.103c0.037,0.071 0.079,0.136 0.132,0.196c0.029,0.032 0.058,0.061 0.09,0.09c0.058,0.051 0.123,0.093 0.193,0.13c0.037,0.02 0.071,0.041 0.111,0.056c0.017,0.006 0.03,0.018 0.047,0.024l22,7c0.098,0.03 0.2,0.046 0.302,0.046c0.21,0 0.417,-0.066 0.59,-0.192c0.258,-0.188 0.41,-0.488 0.41,-0.808l0,-6l11,0c0.553,0 1,-0.447 1,-1l0,-17c0,-0.553 -0.448,-1 -1,-1Zm-13,23.633l-20,-6.364l0,-43.902l20,6.364l0,43.902Z" style="fill:#fff;fill-rule:nonzero;stroke:#fff;stroke-width:1px;"/></g></svg>