<?xml version="1.0" encoding="UTF-8" standalone="no"?><!DOCTYPE svg PUBLIC "-//W3C//DTD SVG 1.1//EN" "http://www.w3.org/Graphics/SVG/1.1/DTD/svg11.dtd"><svg width="100%" height="100%" viewBox="0 0 487 487" version="1.1" xmlns="http://www.w3.org/2000/svg" xmlns:xlink="http://www.w3.org/1999/xlink" xml:space="preserve" xmlns:serif="http://www.serif.com/" style="fill-rule:evenodd;clip-rule:evenodd;stroke-linejoin:round;stroke-miterlimit:1.41421;"><g><path d="M23.875,454.557c0,7.3 5.9,13.2 13.2,13.2l56.1,0c7.3,0 13.2,-5.9 13.2,-13.2l0,-234.8l-82.5,-82.5l0,317.3Z" style="fill:#f00;fill-rule:nonzero;"/><path d="M138.475,251.857l0,202.7c0,7.3 5.9,13.2 13.2,13.2l56.1,0c7.3,0 13.2,-5.9 13.2,-13.2l0,-139c-14,-1.8 -26.9,-8 -37,-18.1l-45.5,-45.6Z" style="fill:#f00;fill-rule:nonzero;"/><path d="M367.775,368.857l0,85.7c0,7.3 5.9,13.2 13.2,13.2l56.1,0c7.3,0 13.2,-5.9 13.2,-13.2l0,-81.5c-25,-1.2 -50,-2.3 -75,-3.5c-1.7,-0.1 -4.4,-0.3 -7.5,-0.7Z" style="fill:#f00;fill-rule:nonzero;"/><path d="M334.375,280.257l-21.5,-21.5l-38.7,38.7c-6.1,6.1 -13.3,10.8 -21.1,14l0,143.1c0,7.3 5.9,13.2 13.2,13.2l56.1,0c7.3,0 13.2,-5.9 13.2,-13.2l0,-101.8c-4.1,-4.3 -7.5,-9.2 -10.1,-14.8c-4.3,-9.6 -11.9,-33.8 8.9,-57.7Z" style="fill:#f00;fill-rule:nonzero;"/><path d="M486.075,316.657l-1.4,-29.1c-0.9,-19.4 -1.8,-38.7 -2.7,-58.1c-0.2,-4.5 -1,-10.3 -5.6,-14.8c-1.2,-1.2 -2.7,-2.4 -4.4,-3.3c-2.5,-1.4 -5,-2 -7.4,-2c-5.8,0 -9.6,3.8 -12.3,6.5l-6.3,6.3c-5.1,5.1 -10.1,10.1 -15.2,15.2c-0.5,0.5 -1,0.9 -1.5,1.4l-98.1,-98.1c-4.9,-4.9 -11.4,-7.6 -18.2,-7.6c-6.8,0 -13.4,2.7 -18.2,7.6l-65.5,65.5l-180.3,-180.2c-4.9,-4.9 -11.3,-7.6 -18.2,-7.6c-6.9,0 -13.4,2.7 -18.3,7.6l-4.9,4.9c-10.1,10.1 -10.1,26.4 0,36.5l203.3,203.3c4.9,4.9 11.3,7.6 18.2,7.6c6.9,0 13.4,-2.7 18.3,-7.6l65.5,-65.5l75,75c-5.3,5.2 -10.5,10.4 -15.7,15.7l-7.5,7.5c-3,3 -9.2,9.2 -4.7,18.7c0.9,1.9 2,3.5 3.3,4.8c4.3,4.3 9.8,4.6 13.7,4.7c29.8,1.4 59.7,2.8 89.5,4.2c0.5,0 1.1,0 1.7,0c5.9,0 10.5,-1.6 13.6,-4.9c3.2,-3.3 4.6,-8 4.3,-14.2Z" style="fill:#f00;fill-rule:nonzero;"/></g></svg>