<?xml version="1.0" encoding="UTF-8" standalone="no"?><!DOCTYPE svg PUBLIC "-//W3C//DTD SVG 1.1//EN" "http://www.w3.org/Graphics/SVG/1.1/DTD/svg11.dtd"><svg width="100%" height="100%" viewBox="0 0 486 486" version="1.1" xmlns="http://www.w3.org/2000/svg" xmlns:xlink="http://www.w3.org/1999/xlink" xml:space="preserve" xmlns:serif="http://www.serif.com/" style="fill-rule:evenodd;clip-rule:evenodd;stroke-linejoin:round;stroke-miterlimit:1.41421;"><path d="M363.908,212.282l0,-90.978c0,-66.87 -54.399,-121.304 -121.302,-121.304c-66.884,0 -121.302,54.434 -121.302,121.304l0,90.978c-33.498,0 -60.653,27.158 -60.653,60.648l0,151.629c0,33.5 27.155,60.653 60.653,60.653l242.604,0c33.491,0 60.653,-27.153 60.653,-60.653l0,-151.629c0.001,-33.491 -27.162,-60.648 -60.653,-60.648Zm-106.138,146.975l0,50.139c0,8.382 -6.781,15.163 -15.163,15.163c-8.382,0 -15.164,-6.781 -15.164,-15.163l0,-50.139c-8.9,-5.269 -15.161,-14.57 -15.161,-25.673c0,-16.765 13.579,-30.327 30.324,-30.327c16.745,0 30.326,13.562 30.326,30.327c0.001,11.103 -6.267,20.405 -15.162,25.673Zm45.485,-146.975l-121.3,0l0,-90.978c0,-33.465 27.2,-60.653 60.651,-60.653c33.435,0 60.648,27.188 60.648,60.653l0,90.978l0.001,0Z" style="fill:#8f8f8f;fill-rule:nonzero;"/></svg>