<?xml version="1.0" encoding="UTF-8" standalone="no"?><!DOCTYPE svg PUBLIC "-//W3C//DTD SVG 1.1//EN" "http://www.w3.org/Graphics/SVG/1.1/DTD/svg11.dtd"><svg width="100%" height="100%" viewBox="0 0 487 487" version="1.1" xmlns="http://www.w3.org/2000/svg" xmlns:xlink="http://www.w3.org/1999/xlink" xml:space="preserve" xmlns:serif="http://www.serif.com/" style="fill-rule:evenodd;clip-rule:evenodd;stroke-linejoin:round;stroke-miterlimit:1.41421;"><g><path d="M33,362.371l0,78.9c0,4.8 3.9,8.8 8.8,8.8l61,0c4.8,0 8.8,-3.9 8.8,-8.8l0,-138.8l-44.3,44.3c-9.4,9.3 -21.4,14.7 -34.3,15.6Z" style="fill:#1cff00;fill-rule:nonzero;"/><path d="M142,301.471l0,139.8c0,4.8 3.9,8.8 8.8,8.8l61,0c4.8,0 8.8,-3.9 8.8,-8.8l0,-82.3c-13.9,-0.3 -26.9,-5.8 -36.7,-15.6l-41.9,-41.9Z" style="fill:#1cff00;fill-rule:nonzero;"/><path d="M251,350.271l0,91c0,4.8 3.9,8.8 8.8,8.8l61,0c4.8,0 8.8,-3.9 8.8,-8.8l0,-167.9l-69.9,69.9c-2.7,2.7 -5.6,5 -8.7,7Z" style="fill:#1cff00;fill-rule:nonzero;"/><path d="M432.7,170.171l-72.7,72.7l0,198.4c0,4.8 3.9,8.8 8.8,8.8l61,0c4.8,0 8.8,-3.9 8.8,-8.8l0,-265.6c-2,-1.7 -3.5,-3.2 -4.6,-4.2l-1.3,-1.3Z" style="fill:#1cff00;fill-rule:nonzero;"/><path d="M482.6,41.371c-2.9,-3.1 -7.3,-4.7 -12.9,-4.7c-0.5,0 -1.1,0 -1.6,0c-28.4,1.3 -56.7,2.7 -85.1,4c-3.8,0.2 -9,0.4 -13.1,4.5c-1.3,1.3 -2.3,2.8 -3.1,4.6c-4.2,9.1 1.7,15 4.5,17.8l7.1,7.2c4.9,5 9.9,10 14.9,14.9l-171.6,171.7l-77.1,-77.1c-4.6,-4.6 -10.8,-7.2 -17.4,-7.2c-6.6,0 -12.7,2.6 -17.3,7.2l-102.7,102.6c-9.6,9.6 -9.6,25.1 0,34.7l4.6,4.6c4.6,4.6 10.8,7.2 17.4,7.2c6.6,0 12.7,-2.6 17.3,-7.2l80.7,-80.7l77.1,77.1c4.6,4.6 10.8,7.2 17.4,7.2c6.6,0 12.7,-2.6 17.4,-7.2l193.6,-193.6l21.9,21.8c2.6,2.6 6.2,6.2 11.7,6.2c2.3,0 4.6,-0.6 7,-1.9c1.6,-0.9 3,-1.9 4.2,-3.1c4.3,-4.3 5.1,-9.8 5.3,-14.1c0.8,-18.4 1.7,-36.8 2.6,-55.3l1.3,-27.7c0.3,-5.8 -1,-10.3 -4.1,-13.5Z" style="fill:#1cff00;fill-rule:nonzero;"/></g></svg>